<mxfile host="app.diagrams.net" agent="Mozilla/5.0 (Windows NT 10.0; Win64; x64) AppleWebKit/537.36 (KHTML, like Gecko) Chrome/134.0.0.0 Safari/537.36 Edg/134.0.0.0" version="26.1.0">
  <diagram name="Page-1" id="0783ab3e-0a74-02c8-0abd-f7b4e66b4bec">
    <mxGraphModel dx="3410" dy="1703" grid="1" gridSize="10" guides="1" tooltips="1" connect="1" arrows="1" fold="1" page="1" pageScale="1" pageWidth="850" pageHeight="1100" background="none" math="0" shadow="0">
      <root>
        <mxCell id="0" />
        <mxCell id="1" parent="0" />
        <mxCell id="1c1d494c118603dd-1" value="Sistema de Contribuição Acadêmica" style="swimlane;html=1;childLayout=stackLayout;startSize=20;rounded=0;shadow=0;comic=0;labelBackgroundColor=none;strokeWidth=1;fontFamily=Verdana;fontSize=12;align=center;" parent="1" vertex="1">
          <mxGeometry x="40" y="30" width="1220" height="1130" as="geometry" />
        </mxCell>
        <mxCell id="1c1d494c118603dd-2" value="" style="swimlane;html=1;startSize=20;" parent="1c1d494c118603dd-1" vertex="1">
          <mxGeometry y="20" width="1220" height="1110" as="geometry" />
        </mxCell>
        <mxCell id="60571a20871a0731-4" value="" style="ellipse;whiteSpace=wrap;html=1;rounded=0;shadow=0;comic=0;labelBackgroundColor=none;strokeWidth=1;fillColor=#000000;fontFamily=Verdana;fontSize=12;align=center;" parent="1c1d494c118603dd-2" vertex="1">
          <mxGeometry x="320" y="40" width="40" height="40" as="geometry" />
        </mxCell>
        <mxCell id="1c1d494c118603dd-27" style="edgeStyle=orthogonalEdgeStyle;rounded=0;html=1;labelBackgroundColor=none;startArrow=none;startFill=0;startSize=5;endArrow=classicThin;endFill=1;endSize=5;jettySize=auto;orthogonalLoop=1;strokeWidth=1;fontFamily=Verdana;fontSize=12" parent="1c1d494c118603dd-2" source="60571a20871a0731-4" edge="1">
          <mxGeometry relative="1" as="geometry">
            <mxPoint x="339.9999999999998" y="120" as="targetPoint" />
          </mxGeometry>
        </mxCell>
        <mxCell id="5HcYzfc1KLZGOu6a6nZM-1" value="" style="rhombus;whiteSpace=wrap;html=1;" parent="1c1d494c118603dd-2" vertex="1">
          <mxGeometry x="300" y="120" width="80" height="40" as="geometry" />
        </mxCell>
        <mxCell id="5HcYzfc1KLZGOu6a6nZM-2" value="Fazer login" style="rounded=1;whiteSpace=wrap;html=1;shadow=0;comic=0;labelBackgroundColor=none;strokeWidth=1;fontFamily=Verdana;fontSize=12;align=center;arcSize=50;" parent="1c1d494c118603dd-2" vertex="1">
          <mxGeometry x="290" y="250" width="100" height="30" as="geometry" />
        </mxCell>
        <mxCell id="5HcYzfc1KLZGOu6a6nZM-5" style="edgeStyle=orthogonalEdgeStyle;rounded=0;html=1;labelBackgroundColor=none;startArrow=none;startFill=0;startSize=5;endArrow=classicThin;endFill=1;endSize=5;jettySize=auto;orthogonalLoop=1;strokeWidth=1;fontFamily=Verdana;fontSize=12;entryX=0.5;entryY=0;entryDx=0;entryDy=0;exitX=0.5;exitY=1;exitDx=0;exitDy=0;" parent="1c1d494c118603dd-2" source="5HcYzfc1KLZGOu6a6nZM-1" target="5HcYzfc1KLZGOu6a6nZM-2" edge="1">
          <mxGeometry relative="1" as="geometry">
            <mxPoint x="270" y="200" as="sourcePoint" />
            <mxPoint x="340" y="220" as="targetPoint" />
          </mxGeometry>
        </mxCell>
        <mxCell id="5HcYzfc1KLZGOu6a6nZM-6" value="[Digitou 1]" style="edgeLabel;html=1;align=center;verticalAlign=middle;resizable=0;points=[];" parent="5HcYzfc1KLZGOu6a6nZM-5" vertex="1" connectable="0">
          <mxGeometry x="-0.0924" y="1" relative="1" as="geometry">
            <mxPoint as="offset" />
          </mxGeometry>
        </mxCell>
        <mxCell id="5HcYzfc1KLZGOu6a6nZM-7" value="Registrar aluno" style="rounded=1;whiteSpace=wrap;html=1;shadow=0;comic=0;labelBackgroundColor=none;strokeWidth=1;fontFamily=Verdana;fontSize=12;align=center;arcSize=50;" parent="1c1d494c118603dd-2" vertex="1">
          <mxGeometry x="480" y="125" width="100" height="30" as="geometry" />
        </mxCell>
        <mxCell id="5HcYzfc1KLZGOu6a6nZM-8" value="Sair" style="rounded=1;whiteSpace=wrap;html=1;shadow=0;comic=0;labelBackgroundColor=none;strokeWidth=1;fontFamily=Verdana;fontSize=12;align=center;arcSize=50;" parent="1c1d494c118603dd-2" vertex="1">
          <mxGeometry x="100" y="80" width="100" height="30" as="geometry" />
        </mxCell>
        <mxCell id="5HcYzfc1KLZGOu6a6nZM-9" style="edgeStyle=orthogonalEdgeStyle;rounded=0;html=1;labelBackgroundColor=none;startArrow=none;startFill=0;startSize=5;endArrow=classicThin;endFill=1;endSize=5;jettySize=auto;orthogonalLoop=1;strokeWidth=1;fontFamily=Verdana;fontSize=12;entryX=0;entryY=0.5;entryDx=0;entryDy=0;exitX=1;exitY=0.5;exitDx=0;exitDy=0;" parent="1c1d494c118603dd-2" source="5HcYzfc1KLZGOu6a6nZM-1" target="5HcYzfc1KLZGOu6a6nZM-7" edge="1">
          <mxGeometry relative="1" as="geometry">
            <mxPoint x="350" y="170" as="sourcePoint" />
            <mxPoint x="350" y="240" as="targetPoint" />
          </mxGeometry>
        </mxCell>
        <mxCell id="5HcYzfc1KLZGOu6a6nZM-10" value="[Digitou 1]" style="edgeLabel;html=1;align=center;verticalAlign=middle;resizable=0;points=[];" parent="5HcYzfc1KLZGOu6a6nZM-9" vertex="1" connectable="0">
          <mxGeometry x="-0.0924" y="1" relative="1" as="geometry">
            <mxPoint as="offset" />
          </mxGeometry>
        </mxCell>
        <mxCell id="5HcYzfc1KLZGOu6a6nZM-11" style="edgeStyle=orthogonalEdgeStyle;rounded=0;html=1;labelBackgroundColor=none;startArrow=none;startFill=0;startSize=5;endArrow=classicThin;endFill=1;endSize=5;jettySize=auto;orthogonalLoop=1;strokeWidth=1;fontFamily=Verdana;fontSize=12;exitX=1;exitY=0.5;exitDx=0;exitDy=0;entryX=1;entryY=0.5;entryDx=0;entryDy=0;" parent="1c1d494c118603dd-2" source="5HcYzfc1KLZGOu6a6nZM-7" target="5HcYzfc1KLZGOu6a6nZM-56" edge="1">
          <mxGeometry relative="1" as="geometry">
            <mxPoint x="620" y="130" as="sourcePoint" />
            <mxPoint x="570" y="190" as="targetPoint" />
            <Array as="points">
              <mxPoint x="670" y="140" />
              <mxPoint x="670" y="230" />
            </Array>
          </mxGeometry>
        </mxCell>
        <mxCell id="5HcYzfc1KLZGOu6a6nZM-16" style="edgeStyle=orthogonalEdgeStyle;rounded=0;html=1;labelBackgroundColor=none;startArrow=none;startFill=0;startSize=5;endArrow=classicThin;endFill=1;endSize=5;jettySize=auto;orthogonalLoop=1;strokeWidth=1;fontFamily=Verdana;fontSize=12;exitX=0;exitY=1;exitDx=0;exitDy=0;" parent="1c1d494c118603dd-2" source="5HcYzfc1KLZGOu6a6nZM-1" target="5HcYzfc1KLZGOu6a6nZM-1" edge="1">
          <mxGeometry relative="1" as="geometry">
            <mxPoint x="240" y="150" as="sourcePoint" />
            <mxPoint x="210" y="130" as="targetPoint" />
            <Array as="points">
              <mxPoint x="320" y="180" />
              <mxPoint x="190" y="180" />
              <mxPoint x="190" y="140" />
            </Array>
          </mxGeometry>
        </mxCell>
        <mxCell id="5HcYzfc1KLZGOu6a6nZM-17" value="[Erro]" style="edgeLabel;html=1;align=center;verticalAlign=middle;resizable=0;points=[];" parent="5HcYzfc1KLZGOu6a6nZM-16" vertex="1" connectable="0">
          <mxGeometry x="-0.0924" y="1" relative="1" as="geometry">
            <mxPoint as="offset" />
          </mxGeometry>
        </mxCell>
        <mxCell id="5HcYzfc1KLZGOu6a6nZM-18" style="edgeStyle=orthogonalEdgeStyle;rounded=0;html=1;labelBackgroundColor=none;startArrow=none;startFill=0;startSize=5;endArrow=classicThin;endFill=1;endSize=5;jettySize=auto;orthogonalLoop=1;strokeWidth=1;fontFamily=Verdana;fontSize=12;entryX=1;entryY=0.5;entryDx=0;entryDy=0;exitX=0.264;exitY=0.199;exitDx=0;exitDy=0;exitPerimeter=0;" parent="1c1d494c118603dd-2" source="5HcYzfc1KLZGOu6a6nZM-1" target="5HcYzfc1KLZGOu6a6nZM-8" edge="1">
          <mxGeometry relative="1" as="geometry">
            <mxPoint x="330" y="95" as="sourcePoint" />
            <mxPoint x="210" y="94.86" as="targetPoint" />
            <Array as="points" />
          </mxGeometry>
        </mxCell>
        <mxCell id="5HcYzfc1KLZGOu6a6nZM-19" value="[Digitou 3]" style="edgeLabel;html=1;align=center;verticalAlign=middle;resizable=0;points=[];" parent="5HcYzfc1KLZGOu6a6nZM-18" vertex="1" connectable="0">
          <mxGeometry x="0.1478" y="2" relative="1" as="geometry">
            <mxPoint as="offset" />
          </mxGeometry>
        </mxCell>
        <mxCell id="5HcYzfc1KLZGOu6a6nZM-24" value="" style="ellipse;html=1;shape=endState;fillColor=#000000;strokeColor=light-dark(#000000,#FFFFFF);" parent="1c1d494c118603dd-2" vertex="1">
          <mxGeometry x="20" y="80" width="30" height="30" as="geometry" />
        </mxCell>
        <mxCell id="5HcYzfc1KLZGOu6a6nZM-21" style="edgeStyle=orthogonalEdgeStyle;rounded=0;html=1;labelBackgroundColor=none;startArrow=none;startFill=0;startSize=5;endArrow=classicThin;endFill=1;endSize=5;jettySize=auto;orthogonalLoop=1;strokeWidth=1;fontFamily=Verdana;fontSize=12;exitX=0;exitY=0.5;exitDx=0;exitDy=0;entryX=1;entryY=0.5;entryDx=0;entryDy=0;" parent="1c1d494c118603dd-2" source="5HcYzfc1KLZGOu6a6nZM-8" target="5HcYzfc1KLZGOu6a6nZM-24" edge="1">
          <mxGeometry relative="1" as="geometry">
            <mxPoint x="90" y="90" as="sourcePoint" />
            <mxPoint x="70" y="95" as="targetPoint" />
          </mxGeometry>
        </mxCell>
        <mxCell id="5HcYzfc1KLZGOu6a6nZM-29" value="" style="rhombus;whiteSpace=wrap;html=1;" parent="1c1d494c118603dd-2" vertex="1">
          <mxGeometry x="300" y="444.97" width="80" height="40" as="geometry" />
        </mxCell>
        <mxCell id="5HcYzfc1KLZGOu6a6nZM-30" style="edgeStyle=orthogonalEdgeStyle;rounded=0;html=1;labelBackgroundColor=none;startArrow=none;startFill=0;startSize=5;endArrow=classicThin;endFill=1;endSize=5;jettySize=auto;orthogonalLoop=1;strokeWidth=1;fontFamily=Verdana;fontSize=12;exitX=0.5;exitY=1;exitDx=0;exitDy=0;" parent="1c1d494c118603dd-2" source="5HcYzfc1KLZGOu6a6nZM-62" edge="1">
          <mxGeometry relative="1" as="geometry">
            <mxPoint x="340" y="354.97" as="sourcePoint" />
            <mxPoint x="339.7399999999998" y="444.97" as="targetPoint" />
          </mxGeometry>
        </mxCell>
        <mxCell id="5HcYzfc1KLZGOu6a6nZM-63" value="[Login como aluno]" style="edgeLabel;html=1;align=center;verticalAlign=middle;resizable=0;points=[];" parent="5HcYzfc1KLZGOu6a6nZM-30" vertex="1" connectable="0">
          <mxGeometry x="-0.1516" y="1" relative="1" as="geometry">
            <mxPoint as="offset" />
          </mxGeometry>
        </mxCell>
        <mxCell id="5HcYzfc1KLZGOu6a6nZM-33" value="Gerenciar arquivos" style="rounded=1;whiteSpace=wrap;html=1;shadow=0;comic=0;labelBackgroundColor=none;strokeWidth=1;fontFamily=Verdana;fontSize=12;align=center;arcSize=50;" parent="1c1d494c118603dd-2" vertex="1">
          <mxGeometry x="620" y="449.97" width="100" height="30" as="geometry" />
        </mxCell>
        <mxCell id="5HcYzfc1KLZGOu6a6nZM-34" value="Acessar ranking de usuarios" style="rounded=1;whiteSpace=wrap;html=1;shadow=0;comic=0;labelBackgroundColor=none;strokeWidth=1;fontFamily=Verdana;fontSize=12;align=center;arcSize=50;" parent="1c1d494c118603dd-2" vertex="1">
          <mxGeometry x="570" y="524.97" width="100" height="40" as="geometry" />
        </mxCell>
        <mxCell id="5HcYzfc1KLZGOu6a6nZM-35" style="edgeStyle=orthogonalEdgeStyle;rounded=0;html=1;labelBackgroundColor=none;startArrow=none;startFill=0;startSize=5;endArrow=classicThin;endFill=1;endSize=5;jettySize=auto;orthogonalLoop=1;strokeWidth=1;fontFamily=Verdana;fontSize=12;entryX=0;entryY=0.5;entryDx=0;entryDy=0;exitX=1;exitY=0.5;exitDx=0;exitDy=0;" parent="1c1d494c118603dd-2" source="5HcYzfc1KLZGOu6a6nZM-29" target="5HcYzfc1KLZGOu6a6nZM-33" edge="1">
          <mxGeometry relative="1" as="geometry">
            <mxPoint x="400" y="364.97" as="sourcePoint" />
            <mxPoint x="400" y="464.97" as="targetPoint" />
          </mxGeometry>
        </mxCell>
        <mxCell id="5HcYzfc1KLZGOu6a6nZM-36" value="[Digitou 1]" style="edgeLabel;html=1;align=center;verticalAlign=middle;resizable=0;points=[];" parent="5HcYzfc1KLZGOu6a6nZM-35" vertex="1" connectable="0">
          <mxGeometry x="-0.0924" y="1" relative="1" as="geometry">
            <mxPoint as="offset" />
          </mxGeometry>
        </mxCell>
        <mxCell id="5HcYzfc1KLZGOu6a6nZM-38" style="edgeStyle=orthogonalEdgeStyle;rounded=0;html=1;labelBackgroundColor=none;startArrow=none;startFill=0;startSize=5;endArrow=classicThin;endFill=1;endSize=5;jettySize=auto;orthogonalLoop=1;strokeWidth=1;fontFamily=Verdana;fontSize=12;entryX=1;entryY=0;entryDx=0;entryDy=0;exitX=0.5;exitY=0;exitDx=0;exitDy=0;" parent="1c1d494c118603dd-2" source="5HcYzfc1KLZGOu6a6nZM-33" target="5HcYzfc1KLZGOu6a6nZM-29" edge="1">
          <mxGeometry relative="1" as="geometry">
            <mxPoint x="570" y="424.97" as="sourcePoint" />
            <mxPoint x="580" y="414.97" as="targetPoint" />
            <Array as="points">
              <mxPoint x="670" y="429.97" />
              <mxPoint x="360" y="429.97" />
            </Array>
          </mxGeometry>
        </mxCell>
        <mxCell id="5HcYzfc1KLZGOu6a6nZM-40" style="edgeStyle=orthogonalEdgeStyle;rounded=0;html=1;labelBackgroundColor=none;startArrow=none;startFill=0;startSize=5;endArrow=classicThin;endFill=1;endSize=5;jettySize=auto;orthogonalLoop=1;strokeWidth=1;fontFamily=Verdana;fontSize=12;entryX=0;entryY=0.5;entryDx=0;entryDy=0;exitX=1;exitY=1;exitDx=0;exitDy=0;" parent="1c1d494c118603dd-2" source="5HcYzfc1KLZGOu6a6nZM-29" target="5HcYzfc1KLZGOu6a6nZM-34" edge="1">
          <mxGeometry relative="1" as="geometry">
            <mxPoint x="320" y="524.97" as="sourcePoint" />
            <mxPoint x="450" y="524.97" as="targetPoint" />
            <Array as="points">
              <mxPoint x="360" y="544.97" />
            </Array>
          </mxGeometry>
        </mxCell>
        <mxCell id="5HcYzfc1KLZGOu6a6nZM-41" value="[Digitou 2]" style="edgeLabel;html=1;align=center;verticalAlign=middle;resizable=0;points=[];" parent="5HcYzfc1KLZGOu6a6nZM-40" vertex="1" connectable="0">
          <mxGeometry x="-0.0924" y="1" relative="1" as="geometry">
            <mxPoint as="offset" />
          </mxGeometry>
        </mxCell>
        <mxCell id="5HcYzfc1KLZGOu6a6nZM-42" style="edgeStyle=orthogonalEdgeStyle;rounded=0;html=1;labelBackgroundColor=none;startArrow=none;startFill=0;startSize=5;endArrow=classicThin;endFill=1;endSize=5;jettySize=auto;orthogonalLoop=1;strokeWidth=1;fontFamily=Verdana;fontSize=12;entryX=1;entryY=1;entryDx=0;entryDy=0;exitX=0.5;exitY=0;exitDx=0;exitDy=0;" parent="1c1d494c118603dd-2" source="5HcYzfc1KLZGOu6a6nZM-34" target="5HcYzfc1KLZGOu6a6nZM-29" edge="1">
          <mxGeometry relative="1" as="geometry">
            <mxPoint x="580" y="514.97" as="sourcePoint" />
            <mxPoint x="340" y="524.97" as="targetPoint" />
            <Array as="points">
              <mxPoint x="620" y="499.97" />
              <mxPoint x="380" y="499.97" />
              <mxPoint x="380" y="474.97" />
            </Array>
          </mxGeometry>
        </mxCell>
        <mxCell id="5HcYzfc1KLZGOu6a6nZM-44" value="Acessar grupos disponíveis" style="rounded=1;whiteSpace=wrap;html=1;shadow=0;comic=0;labelBackgroundColor=none;strokeWidth=1;fontFamily=Verdana;fontSize=12;align=center;arcSize=50;" parent="1c1d494c118603dd-2" vertex="1">
          <mxGeometry x="150" y="554.97" width="100" height="40" as="geometry" />
        </mxCell>
        <mxCell id="5HcYzfc1KLZGOu6a6nZM-45" style="edgeStyle=orthogonalEdgeStyle;rounded=0;html=1;labelBackgroundColor=none;startArrow=classic;startFill=1;startSize=5;endArrow=none;endFill=1;endSize=5;jettySize=auto;orthogonalLoop=1;strokeWidth=1;fontFamily=Verdana;fontSize=12;entryX=0.5;entryY=0;entryDx=0;entryDy=0;exitX=0;exitY=0.5;exitDx=0;exitDy=0;" parent="1c1d494c118603dd-2" source="5HcYzfc1KLZGOu6a6nZM-29" target="5HcYzfc1KLZGOu6a6nZM-44" edge="1">
          <mxGeometry relative="1" as="geometry">
            <mxPoint x="340" y="494.97" as="sourcePoint" />
            <mxPoint x="120" y="484.97" as="targetPoint" />
            <Array as="points">
              <mxPoint x="240" y="464.97" />
              <mxPoint x="240" y="534.97" />
              <mxPoint x="200" y="534.97" />
            </Array>
          </mxGeometry>
        </mxCell>
        <mxCell id="5HcYzfc1KLZGOu6a6nZM-46" style="edgeStyle=orthogonalEdgeStyle;rounded=0;html=1;labelBackgroundColor=none;startArrow=classic;startFill=1;startSize=5;endArrow=none;endFill=1;endSize=5;jettySize=auto;orthogonalLoop=1;strokeWidth=1;fontFamily=Verdana;fontSize=12;entryX=0;entryY=1;entryDx=0;entryDy=0;exitX=1;exitY=0.5;exitDx=0;exitDy=0;" parent="1c1d494c118603dd-2" source="5HcYzfc1KLZGOu6a6nZM-44" target="5HcYzfc1KLZGOu6a6nZM-29" edge="1">
          <mxGeometry relative="1" as="geometry">
            <mxPoint x="310" y="474.97" as="sourcePoint" />
            <mxPoint x="210" y="524.97" as="targetPoint" />
            <Array as="points">
              <mxPoint x="280" y="574.97" />
              <mxPoint x="280" y="474.97" />
            </Array>
          </mxGeometry>
        </mxCell>
        <mxCell id="5HcYzfc1KLZGOu6a6nZM-53" value="[Digitou 3]" style="edgeLabel;html=1;align=center;verticalAlign=middle;resizable=0;points=[];" parent="5HcYzfc1KLZGOu6a6nZM-46" vertex="1" connectable="0">
          <mxGeometry x="-0.0478" y="2" relative="1" as="geometry">
            <mxPoint as="offset" />
          </mxGeometry>
        </mxCell>
        <mxCell id="5HcYzfc1KLZGOu6a6nZM-49" style="edgeStyle=orthogonalEdgeStyle;rounded=0;html=1;labelBackgroundColor=none;startArrow=none;startFill=0;startSize=5;endArrow=classicThin;endFill=1;endSize=5;jettySize=auto;orthogonalLoop=1;strokeWidth=1;fontFamily=Verdana;fontSize=12;exitX=0;exitY=0;exitDx=0;exitDy=0;entryX=0.5;entryY=1;entryDx=0;entryDy=0;" parent="1c1d494c118603dd-2" source="5HcYzfc1KLZGOu6a6nZM-29" target="5HcYzfc1KLZGOu6a6nZM-8" edge="1">
          <mxGeometry relative="1" as="geometry">
            <mxPoint x="260" y="300" as="sourcePoint" />
            <mxPoint x="150" y="140" as="targetPoint" />
            <Array as="points">
              <mxPoint x="320" y="410" />
              <mxPoint x="150" y="410" />
            </Array>
          </mxGeometry>
        </mxCell>
        <mxCell id="5HcYzfc1KLZGOu6a6nZM-64" value="[Digitou 4]" style="edgeLabel;html=1;align=center;verticalAlign=middle;resizable=0;points=[];" parent="5HcYzfc1KLZGOu6a6nZM-49" vertex="1" connectable="0">
          <mxGeometry x="0.336" y="-1" relative="1" as="geometry">
            <mxPoint as="offset" />
          </mxGeometry>
        </mxCell>
        <mxCell id="5HcYzfc1KLZGOu6a6nZM-54" style="edgeStyle=orthogonalEdgeStyle;rounded=0;html=1;labelBackgroundColor=none;startArrow=classic;startFill=1;startSize=5;endArrow=none;endFill=1;endSize=5;jettySize=auto;orthogonalLoop=1;strokeWidth=1;fontFamily=Verdana;fontSize=12;exitX=0;exitY=0;exitDx=0;exitDy=0;entryX=0.363;entryY=0.859;entryDx=0;entryDy=0;entryPerimeter=0;" parent="1c1d494c118603dd-2" target="5HcYzfc1KLZGOu6a6nZM-29" edge="1">
          <mxGeometry relative="1" as="geometry">
            <mxPoint x="320" y="474.97" as="sourcePoint" />
            <mxPoint x="340" y="614.97" as="targetPoint" />
            <Array as="points">
              <mxPoint x="320" y="614.97" />
              <mxPoint x="329" y="614.97" />
            </Array>
          </mxGeometry>
        </mxCell>
        <mxCell id="5HcYzfc1KLZGOu6a6nZM-55" value="[Erro]" style="edgeLabel;html=1;align=center;verticalAlign=middle;resizable=0;points=[];" parent="5HcYzfc1KLZGOu6a6nZM-54" vertex="1" connectable="0">
          <mxGeometry x="-0.3533" y="-1" relative="1" as="geometry">
            <mxPoint as="offset" />
          </mxGeometry>
        </mxCell>
        <mxCell id="5HcYzfc1KLZGOu6a6nZM-56" value="" style="rhombus;whiteSpace=wrap;html=1;" parent="1c1d494c118603dd-2" vertex="1">
          <mxGeometry x="490" y="210" width="80" height="40" as="geometry" />
        </mxCell>
        <mxCell id="5HcYzfc1KLZGOu6a6nZM-57" style="edgeStyle=orthogonalEdgeStyle;rounded=0;html=1;labelBackgroundColor=none;startArrow=none;startFill=0;startSize=5;endArrow=classicThin;endFill=1;endSize=5;jettySize=auto;orthogonalLoop=1;strokeWidth=1;fontFamily=Verdana;fontSize=12;entryX=0.5;entryY=1;entryDx=0;entryDy=0;exitX=0.5;exitY=0;exitDx=0;exitDy=0;" parent="1c1d494c118603dd-2" source="5HcYzfc1KLZGOu6a6nZM-56" target="5HcYzfc1KLZGOu6a6nZM-7" edge="1">
          <mxGeometry relative="1" as="geometry">
            <mxPoint x="490" y="160" as="sourcePoint" />
            <mxPoint x="489.9999999999998" y="200" as="targetPoint" />
          </mxGeometry>
        </mxCell>
        <mxCell id="5HcYzfc1KLZGOu6a6nZM-58" value="[Erro no cadastro]" style="edgeLabel;html=1;align=center;verticalAlign=middle;resizable=0;points=[];" parent="5HcYzfc1KLZGOu6a6nZM-57" vertex="1" connectable="0">
          <mxGeometry x="-0.1876" relative="1" as="geometry">
            <mxPoint as="offset" />
          </mxGeometry>
        </mxCell>
        <mxCell id="5HcYzfc1KLZGOu6a6nZM-59" style="edgeStyle=orthogonalEdgeStyle;rounded=0;html=1;labelBackgroundColor=none;startArrow=none;startFill=0;startSize=5;endArrow=classicThin;endFill=1;endSize=5;jettySize=auto;orthogonalLoop=1;strokeWidth=1;fontFamily=Verdana;fontSize=12;exitX=0;exitY=0.5;exitDx=0;exitDy=0;entryX=1;entryY=1;entryDx=0;entryDy=0;" parent="1c1d494c118603dd-2" source="5HcYzfc1KLZGOu6a6nZM-56" target="5HcYzfc1KLZGOu6a6nZM-1" edge="1">
          <mxGeometry relative="1" as="geometry">
            <mxPoint x="590" y="150" as="sourcePoint" />
            <mxPoint x="580" y="220" as="targetPoint" />
            <Array as="points">
              <mxPoint x="450" y="230" />
              <mxPoint x="450" y="180" />
              <mxPoint x="360" y="180" />
            </Array>
          </mxGeometry>
        </mxCell>
        <mxCell id="5HcYzfc1KLZGOu6a6nZM-61" value="[Cadastro efetuado]" style="edgeLabel;html=1;align=center;verticalAlign=middle;resizable=0;points=[];" parent="5HcYzfc1KLZGOu6a6nZM-59" vertex="1" connectable="0">
          <mxGeometry x="-0.4409" y="1" relative="1" as="geometry">
            <mxPoint as="offset" />
          </mxGeometry>
        </mxCell>
        <mxCell id="5HcYzfc1KLZGOu6a6nZM-62" value="" style="rhombus;whiteSpace=wrap;html=1;" parent="1c1d494c118603dd-2" vertex="1">
          <mxGeometry x="300" y="310" width="80" height="40" as="geometry" />
        </mxCell>
        <mxCell id="5HcYzfc1KLZGOu6a6nZM-65" style="edgeStyle=orthogonalEdgeStyle;rounded=0;html=1;labelBackgroundColor=none;startArrow=none;startFill=0;startSize=5;endArrow=classicThin;endFill=1;endSize=5;jettySize=auto;orthogonalLoop=1;strokeWidth=1;fontFamily=Verdana;fontSize=12" parent="1c1d494c118603dd-2" edge="1">
          <mxGeometry relative="1" as="geometry">
            <mxPoint x="340" y="280" as="sourcePoint" />
            <mxPoint x="339.7299999999998" y="310" as="targetPoint" />
            <Array as="points">
              <mxPoint x="340" y="291" />
              <mxPoint x="340" y="291" />
            </Array>
          </mxGeometry>
        </mxCell>
        <mxCell id="zRKcKvAwPDze731kFcPP-1" style="edgeStyle=orthogonalEdgeStyle;rounded=0;html=1;labelBackgroundColor=none;startArrow=none;startFill=0;startSize=5;endArrow=classicThin;endFill=1;endSize=5;jettySize=auto;orthogonalLoop=1;strokeWidth=1;fontFamily=Verdana;fontSize=12;entryX=0.5;entryY=0;entryDx=0;entryDy=0;" parent="1c1d494c118603dd-2" target="zRKcKvAwPDze731kFcPP-4" edge="1">
          <mxGeometry relative="1" as="geometry">
            <mxPoint x="339.89" y="484.97" as="sourcePoint" />
            <mxPoint x="339.89" y="714.97" as="targetPoint" />
          </mxGeometry>
        </mxCell>
        <mxCell id="zRKcKvAwPDze731kFcPP-3" value="[Digitou para buscar arquivo]" style="edgeLabel;html=1;align=center;verticalAlign=middle;resizable=0;points=[];" parent="zRKcKvAwPDze731kFcPP-1" vertex="1" connectable="0">
          <mxGeometry x="0.3844" relative="1" as="geometry">
            <mxPoint as="offset" />
          </mxGeometry>
        </mxCell>
        <mxCell id="zRKcKvAwPDze731kFcPP-4" value="Buscar arquivo" style="rounded=1;whiteSpace=wrap;html=1;shadow=0;comic=0;labelBackgroundColor=none;strokeWidth=1;fontFamily=Verdana;fontSize=12;align=center;arcSize=50;" parent="1c1d494c118603dd-2" vertex="1">
          <mxGeometry x="290" y="720" width="100" height="40" as="geometry" />
        </mxCell>
        <mxCell id="zRKcKvAwPDze731kFcPP-5" value="" style="rhombus;whiteSpace=wrap;html=1;" parent="1c1d494c118603dd-2" vertex="1">
          <mxGeometry x="300" y="800" width="80" height="40" as="geometry" />
        </mxCell>
        <mxCell id="zRKcKvAwPDze731kFcPP-7" style="edgeStyle=orthogonalEdgeStyle;rounded=0;html=1;labelBackgroundColor=none;startArrow=none;startFill=0;startSize=5;endArrow=classicThin;endFill=1;endSize=5;jettySize=auto;orthogonalLoop=1;strokeWidth=1;fontFamily=Verdana;fontSize=12;" parent="1c1d494c118603dd-2" edge="1">
          <mxGeometry relative="1" as="geometry">
            <mxPoint x="340.13" y="760" as="sourcePoint" />
            <mxPoint x="340" y="800" as="targetPoint" />
            <Array as="points">
              <mxPoint x="340" y="781" />
            </Array>
          </mxGeometry>
        </mxCell>
        <mxCell id="zRKcKvAwPDze731kFcPP-8" style="edgeStyle=orthogonalEdgeStyle;rounded=0;html=1;labelBackgroundColor=none;startArrow=none;startFill=0;startSize=5;endArrow=classicThin;endFill=1;endSize=5;jettySize=auto;orthogonalLoop=1;strokeWidth=1;fontFamily=Verdana;fontSize=12;exitX=0;exitY=0.5;exitDx=0;exitDy=0;entryX=0;entryY=0.5;entryDx=0;entryDy=0;" parent="1c1d494c118603dd-2" source="zRKcKvAwPDze731kFcPP-5" target="zRKcKvAwPDze731kFcPP-4" edge="1">
          <mxGeometry relative="1" as="geometry">
            <mxPoint x="280.13" y="800" as="sourcePoint" />
            <mxPoint x="260" y="740" as="targetPoint" />
            <Array as="points">
              <mxPoint x="280" y="820" />
              <mxPoint x="280" y="790" />
              <mxPoint x="250" y="790" />
              <mxPoint x="250" y="740" />
            </Array>
          </mxGeometry>
        </mxCell>
        <mxCell id="zRKcKvAwPDze731kFcPP-9" value="[Realizar nova busca]" style="edgeLabel;html=1;align=center;verticalAlign=middle;resizable=0;points=[];" parent="zRKcKvAwPDze731kFcPP-8" vertex="1" connectable="0">
          <mxGeometry x="0.1944" relative="1" as="geometry">
            <mxPoint as="offset" />
          </mxGeometry>
        </mxCell>
        <mxCell id="zRKcKvAwPDze731kFcPP-10" style="edgeStyle=orthogonalEdgeStyle;rounded=0;html=1;labelBackgroundColor=none;startArrow=none;startFill=0;startSize=5;endArrow=classicThin;endFill=1;endSize=5;jettySize=auto;orthogonalLoop=1;strokeWidth=1;fontFamily=Verdana;fontSize=12;exitX=1;exitY=0.5;exitDx=0;exitDy=0;entryX=0.5;entryY=0;entryDx=0;entryDy=0;" parent="1c1d494c118603dd-2" source="zRKcKvAwPDze731kFcPP-5" target="zRKcKvAwPDze731kFcPP-13" edge="1">
          <mxGeometry relative="1" as="geometry">
            <mxPoint x="420.13" y="800" as="sourcePoint" />
            <mxPoint x="530" y="820" as="targetPoint" />
            <Array as="points">
              <mxPoint x="547" y="820" />
            </Array>
          </mxGeometry>
        </mxCell>
        <mxCell id="zRKcKvAwPDze731kFcPP-12" value="[Escolher arquivo]" style="edgeLabel;html=1;align=center;verticalAlign=middle;resizable=0;points=[];" parent="zRKcKvAwPDze731kFcPP-10" vertex="1" connectable="0">
          <mxGeometry x="-0.0317" y="1" relative="1" as="geometry">
            <mxPoint as="offset" />
          </mxGeometry>
        </mxCell>
        <mxCell id="zRKcKvAwPDze731kFcPP-13" value="" style="whiteSpace=wrap;html=1;rounded=0;shadow=0;comic=0;labelBackgroundColor=none;strokeWidth=1;fillColor=#000000;fontFamily=Verdana;fontSize=12;align=center;rotation=0;" parent="1c1d494c118603dd-2" vertex="1">
          <mxGeometry x="473" y="840" width="147" height="10" as="geometry" />
        </mxCell>
        <mxCell id="zRKcKvAwPDze731kFcPP-14" value="Fazer comentário" style="rounded=1;whiteSpace=wrap;html=1;shadow=0;comic=0;labelBackgroundColor=none;strokeWidth=1;fontFamily=Verdana;fontSize=12;align=center;arcSize=50;" parent="1c1d494c118603dd-2" vertex="1">
          <mxGeometry x="380" y="880" width="100" height="30" as="geometry" />
        </mxCell>
        <mxCell id="zRKcKvAwPDze731kFcPP-15" style="edgeStyle=none;rounded=0;html=1;labelBackgroundColor=none;startArrow=none;startFill=0;startSize=5;endArrow=classicThin;endFill=1;endSize=5;jettySize=auto;orthogonalLoop=1;strokeWidth=1;fontFamily=Verdana;fontSize=12;entryX=0.569;entryY=-0.042;entryDx=0;entryDy=0;exitX=0.5;exitY=1;exitDx=0;exitDy=0;entryPerimeter=0;" parent="1c1d494c118603dd-2" source="zRKcKvAwPDze731kFcPP-13" target="zRKcKvAwPDze731kFcPP-17" edge="1">
          <mxGeometry relative="1" as="geometry">
            <mxPoint x="557" y="850" as="sourcePoint" />
            <mxPoint x="580" y="880" as="targetPoint" />
          </mxGeometry>
        </mxCell>
        <mxCell id="zRKcKvAwPDze731kFcPP-17" value="Fazer download" style="rounded=1;whiteSpace=wrap;html=1;shadow=0;comic=0;labelBackgroundColor=none;strokeWidth=1;fontFamily=Verdana;fontSize=12;align=center;arcSize=50;" parent="1c1d494c118603dd-2" vertex="1">
          <mxGeometry x="490" y="880" width="100" height="30" as="geometry" />
        </mxCell>
        <mxCell id="zRKcKvAwPDze731kFcPP-19" style="edgeStyle=none;rounded=0;html=1;labelBackgroundColor=none;startArrow=none;startFill=0;startSize=5;endArrow=classicThin;endFill=1;endSize=5;jettySize=auto;orthogonalLoop=1;strokeWidth=1;fontFamily=Verdana;fontSize=12;entryX=0.5;entryY=0;entryDx=0;entryDy=0;exitX=0.048;exitY=1;exitDx=0;exitDy=0;exitPerimeter=0;" parent="1c1d494c118603dd-2" source="zRKcKvAwPDze731kFcPP-13" target="zRKcKvAwPDze731kFcPP-14" edge="1">
          <mxGeometry relative="1" as="geometry">
            <mxPoint x="430" y="850" as="sourcePoint" />
            <mxPoint x="453" y="880" as="targetPoint" />
          </mxGeometry>
        </mxCell>
        <mxCell id="zRKcKvAwPDze731kFcPP-20" value="Avaliar arquivo" style="rounded=1;whiteSpace=wrap;html=1;shadow=0;comic=0;labelBackgroundColor=none;strokeWidth=1;fontFamily=Verdana;fontSize=12;align=center;arcSize=50;" parent="1c1d494c118603dd-2" vertex="1">
          <mxGeometry x="610" y="880" width="100" height="30" as="geometry" />
        </mxCell>
        <mxCell id="zRKcKvAwPDze731kFcPP-21" style="edgeStyle=none;rounded=0;html=1;labelBackgroundColor=none;startArrow=none;startFill=0;startSize=5;endArrow=classicThin;endFill=1;endSize=5;jettySize=auto;orthogonalLoop=1;strokeWidth=1;fontFamily=Verdana;fontSize=12;entryX=0.5;entryY=0;entryDx=0;entryDy=0;" parent="1c1d494c118603dd-2" target="zRKcKvAwPDze731kFcPP-20" edge="1">
          <mxGeometry relative="1" as="geometry">
            <mxPoint x="610" y="850" as="sourcePoint" />
            <mxPoint x="610" y="880" as="targetPoint" />
          </mxGeometry>
        </mxCell>
        <mxCell id="zRKcKvAwPDze731kFcPP-22" value="" style="whiteSpace=wrap;html=1;rounded=0;shadow=0;comic=0;labelBackgroundColor=none;strokeWidth=1;fillColor=#000000;fontFamily=Verdana;fontSize=12;align=center;rotation=0;" parent="1c1d494c118603dd-2" vertex="1">
          <mxGeometry x="473" y="960" width="147" height="10" as="geometry" />
        </mxCell>
        <mxCell id="zRKcKvAwPDze731kFcPP-23" style="edgeStyle=none;rounded=0;html=1;labelBackgroundColor=none;startArrow=none;startFill=0;startSize=5;endArrow=classicThin;endFill=1;endSize=5;jettySize=auto;orthogonalLoop=1;strokeWidth=1;fontFamily=Verdana;fontSize=12;exitX=0.5;exitY=1;exitDx=0;exitDy=0;" parent="1c1d494c118603dd-2" edge="1">
          <mxGeometry relative="1" as="geometry">
            <mxPoint x="546.33" y="910" as="sourcePoint" />
            <mxPoint x="546" y="958" as="targetPoint" />
          </mxGeometry>
        </mxCell>
        <mxCell id="zRKcKvAwPDze731kFcPP-25" style="edgeStyle=none;rounded=0;html=1;labelBackgroundColor=none;startArrow=none;startFill=0;startSize=5;endArrow=classicThin;endFill=1;endSize=5;jettySize=auto;orthogonalLoop=1;strokeWidth=1;fontFamily=Verdana;fontSize=12;entryX=0.25;entryY=0;entryDx=0;entryDy=0;exitX=0.5;exitY=1;exitDx=0;exitDy=0;" parent="1c1d494c118603dd-2" source="zRKcKvAwPDze731kFcPP-14" target="zRKcKvAwPDze731kFcPP-22" edge="1">
          <mxGeometry relative="1" as="geometry">
            <mxPoint x="490" y="860" as="sourcePoint" />
            <mxPoint x="440" y="890" as="targetPoint" />
          </mxGeometry>
        </mxCell>
        <mxCell id="zRKcKvAwPDze731kFcPP-26" style="edgeStyle=none;rounded=0;html=1;labelBackgroundColor=none;startArrow=none;startFill=0;startSize=5;endArrow=classicThin;endFill=1;endSize=5;jettySize=auto;orthogonalLoop=1;strokeWidth=1;fontFamily=Verdana;fontSize=12;entryX=0.796;entryY=0;entryDx=0;entryDy=0;exitX=0.5;exitY=1;exitDx=0;exitDy=0;entryPerimeter=0;" parent="1c1d494c118603dd-2" source="zRKcKvAwPDze731kFcPP-20" target="zRKcKvAwPDze731kFcPP-22" edge="1">
          <mxGeometry relative="1" as="geometry">
            <mxPoint x="630" y="930" as="sourcePoint" />
            <mxPoint x="680" y="960" as="targetPoint" />
          </mxGeometry>
        </mxCell>
        <mxCell id="zRKcKvAwPDze731kFcPP-27" value="Finalizar busca" style="rounded=1;whiteSpace=wrap;html=1;shadow=0;comic=0;labelBackgroundColor=none;strokeWidth=1;fontFamily=Verdana;fontSize=12;align=center;arcSize=50;" parent="1c1d494c118603dd-2" vertex="1">
          <mxGeometry x="496.5" y="1010" width="100" height="40" as="geometry" />
        </mxCell>
        <mxCell id="zRKcKvAwPDze731kFcPP-28" style="edgeStyle=none;rounded=0;html=1;labelBackgroundColor=none;startArrow=none;startFill=0;startSize=5;endArrow=classicThin;endFill=1;endSize=5;jettySize=auto;orthogonalLoop=1;strokeWidth=1;fontFamily=Verdana;fontSize=12;exitX=0.5;exitY=1;exitDx=0;exitDy=0;entryX=0.569;entryY=-0.006;entryDx=0;entryDy=0;entryPerimeter=0;" parent="1c1d494c118603dd-2" edge="1">
          <mxGeometry relative="1" as="geometry">
            <mxPoint x="546.3000000000001" y="970" as="sourcePoint" />
            <mxPoint x="546.7099999999999" y="1009.76" as="targetPoint" />
          </mxGeometry>
        </mxCell>
        <mxCell id="zRKcKvAwPDze731kFcPP-29" style="edgeStyle=none;rounded=0;html=1;labelBackgroundColor=none;startArrow=none;startFill=0;startSize=5;endArrow=classicThin;endFill=1;endSize=5;jettySize=auto;orthogonalLoop=1;strokeWidth=1;fontFamily=Verdana;fontSize=12;exitX=0;exitY=0.5;exitDx=0;exitDy=0;entryX=1;entryY=0.5;entryDx=0;entryDy=0;" parent="1c1d494c118603dd-2" source="zRKcKvAwPDze731kFcPP-27" target="zRKcKvAwPDze731kFcPP-30" edge="1">
          <mxGeometry relative="1" as="geometry">
            <mxPoint x="390.00000000000006" y="1000" as="sourcePoint" />
            <mxPoint x="390" y="1030" as="targetPoint" />
          </mxGeometry>
        </mxCell>
        <mxCell id="zRKcKvAwPDze731kFcPP-31" style="edgeStyle=orthogonalEdgeStyle;rounded=0;orthogonalLoop=1;jettySize=auto;html=1;entryX=0.25;entryY=0;entryDx=0;entryDy=0;" parent="1c1d494c118603dd-2" source="zRKcKvAwPDze731kFcPP-30" target="zRKcKvAwPDze731kFcPP-4" edge="1">
          <mxGeometry relative="1" as="geometry">
            <Array as="points">
              <mxPoint x="160" y="700" />
              <mxPoint x="315" y="700" />
            </Array>
          </mxGeometry>
        </mxCell>
        <mxCell id="zRKcKvAwPDze731kFcPP-32" value="[Fazer mais buscas]" style="edgeLabel;html=1;align=center;verticalAlign=middle;resizable=0;points=[];" parent="zRKcKvAwPDze731kFcPP-31" vertex="1" connectable="0">
          <mxGeometry x="-0.4169" y="-1" relative="1" as="geometry">
            <mxPoint as="offset" />
          </mxGeometry>
        </mxCell>
        <mxCell id="zRKcKvAwPDze731kFcPP-33" style="edgeStyle=orthogonalEdgeStyle;rounded=0;orthogonalLoop=1;jettySize=auto;html=1;entryX=0;entryY=0;entryDx=0;entryDy=0;" parent="1c1d494c118603dd-2" source="zRKcKvAwPDze731kFcPP-30" target="5HcYzfc1KLZGOu6a6nZM-29" edge="1">
          <mxGeometry relative="1" as="geometry">
            <Array as="points">
              <mxPoint x="70" y="1030" />
              <mxPoint x="70" y="455" />
            </Array>
          </mxGeometry>
        </mxCell>
        <mxCell id="zRKcKvAwPDze731kFcPP-34" value="[Voltar ao menu]" style="edgeLabel;html=1;align=center;verticalAlign=middle;resizable=0;points=[];" parent="zRKcKvAwPDze731kFcPP-33" vertex="1" connectable="0">
          <mxGeometry x="-0.0378" relative="1" as="geometry">
            <mxPoint as="offset" />
          </mxGeometry>
        </mxCell>
        <mxCell id="zRKcKvAwPDze731kFcPP-30" value="" style="rhombus;whiteSpace=wrap;html=1;" parent="1c1d494c118603dd-2" vertex="1">
          <mxGeometry x="100" y="1010" width="80" height="40" as="geometry" />
        </mxCell>
        <mxCell id="ggTP7xHLe0UpghVBcW5I-1" style="edgeStyle=orthogonalEdgeStyle;rounded=0;html=1;labelBackgroundColor=none;startArrow=none;startFill=0;startSize=5;endArrow=classicThin;endFill=1;endSize=5;jettySize=auto;orthogonalLoop=1;strokeWidth=1;fontFamily=Verdana;fontSize=12;entryX=0;entryY=0.5;entryDx=0;entryDy=0;exitX=0;exitY=1;exitDx=0;exitDy=0;" edge="1" parent="1c1d494c118603dd-2" source="5HcYzfc1KLZGOu6a6nZM-62" target="5HcYzfc1KLZGOu6a6nZM-62">
          <mxGeometry relative="1" as="geometry">
            <mxPoint x="360" y="340" as="sourcePoint" />
            <mxPoint x="380" y="330" as="targetPoint" />
            <Array as="points">
              <mxPoint x="290" y="340" />
              <mxPoint x="290" y="360" />
              <mxPoint x="180" y="360" />
              <mxPoint x="180" y="330" />
            </Array>
          </mxGeometry>
        </mxCell>
        <mxCell id="ggTP7xHLe0UpghVBcW5I-2" value="[Login incorreto]" style="edgeLabel;html=1;align=center;verticalAlign=middle;resizable=0;points=[];" vertex="1" connectable="0" parent="ggTP7xHLe0UpghVBcW5I-1">
          <mxGeometry x="0.6414" y="-1" relative="1" as="geometry">
            <mxPoint as="offset" />
          </mxGeometry>
        </mxCell>
        <mxCell id="ggTP7xHLe0UpghVBcW5I-3" style="edgeStyle=orthogonalEdgeStyle;rounded=0;html=1;labelBackgroundColor=none;startArrow=none;startFill=0;startSize=5;endArrow=classicThin;endFill=1;endSize=5;jettySize=auto;orthogonalLoop=1;strokeWidth=1;fontFamily=Verdana;fontSize=12;exitX=1;exitY=0.5;exitDx=0;exitDy=0;entryX=0;entryY=0.5;entryDx=0;entryDy=0;" edge="1" parent="1c1d494c118603dd-2" source="5HcYzfc1KLZGOu6a6nZM-62" target="ggTP7xHLe0UpghVBcW5I-5">
          <mxGeometry relative="1" as="geometry">
            <mxPoint x="473" y="285" as="sourcePoint" />
            <mxPoint x="590" y="330" as="targetPoint" />
          </mxGeometry>
        </mxCell>
        <mxCell id="ggTP7xHLe0UpghVBcW5I-4" value="[Login como moderador]" style="edgeLabel;html=1;align=center;verticalAlign=middle;resizable=0;points=[];" vertex="1" connectable="0" parent="ggTP7xHLe0UpghVBcW5I-3">
          <mxGeometry x="-0.0924" y="1" relative="1" as="geometry">
            <mxPoint as="offset" />
          </mxGeometry>
        </mxCell>
        <mxCell id="ggTP7xHLe0UpghVBcW5I-5" value="" style="rhombus;whiteSpace=wrap;html=1;" vertex="1" parent="1c1d494c118603dd-2">
          <mxGeometry x="810" y="310" width="80" height="40" as="geometry" />
        </mxCell>
        <mxCell id="ggTP7xHLe0UpghVBcW5I-6" value="Banir usuário" style="rounded=1;whiteSpace=wrap;html=1;shadow=0;comic=0;labelBackgroundColor=none;strokeWidth=1;fontFamily=Verdana;fontSize=12;align=center;arcSize=50;" vertex="1" parent="1c1d494c118603dd-2">
          <mxGeometry x="800" y="449.97" width="100" height="30" as="geometry" />
        </mxCell>
        <mxCell id="ggTP7xHLe0UpghVBcW5I-7" style="edgeStyle=orthogonalEdgeStyle;rounded=0;html=1;labelBackgroundColor=none;startArrow=none;startFill=0;startSize=5;endArrow=classicThin;endFill=1;endSize=5;jettySize=auto;orthogonalLoop=1;strokeWidth=1;fontFamily=Verdana;fontSize=12;entryX=0.393;entryY=-0.007;entryDx=0;entryDy=0;entryPerimeter=0;" edge="1" parent="1c1d494c118603dd-2">
          <mxGeometry relative="1" as="geometry">
            <mxPoint x="850.32" y="350.21" as="sourcePoint" />
            <mxPoint x="849.62" y="449.96999999999986" as="targetPoint" />
            <Array as="points">
              <mxPoint x="850.32" y="398.21" />
              <mxPoint x="849.32" y="398.21" />
            </Array>
          </mxGeometry>
        </mxCell>
        <mxCell id="ggTP7xHLe0UpghVBcW5I-10" value="Excluir usuário" style="rounded=1;whiteSpace=wrap;html=1;shadow=0;comic=0;labelBackgroundColor=none;strokeWidth=1;fontFamily=Verdana;fontSize=12;align=center;arcSize=50;" vertex="1" parent="1c1d494c118603dd-2">
          <mxGeometry x="950" y="449.97" width="100" height="30" as="geometry" />
        </mxCell>
        <mxCell id="ggTP7xHLe0UpghVBcW5I-12" style="edgeStyle=orthogonalEdgeStyle;rounded=0;html=1;labelBackgroundColor=none;startArrow=none;startFill=0;startSize=5;endArrow=classicThin;endFill=1;endSize=5;jettySize=auto;orthogonalLoop=1;strokeWidth=1;fontFamily=Verdana;fontSize=12;entryX=0.5;entryY=0;entryDx=0;entryDy=0;exitX=0.927;exitY=0.573;exitDx=0;exitDy=0;exitPerimeter=0;" edge="1" parent="1c1d494c118603dd-2" source="ggTP7xHLe0UpghVBcW5I-5" target="ggTP7xHLe0UpghVBcW5I-10">
          <mxGeometry relative="1" as="geometry">
            <mxPoint x="870.74" y="340" as="sourcePoint" />
            <mxPoint x="870.04" y="439.7599999999999" as="targetPoint" />
            <Array as="points">
              <mxPoint x="884" y="360" />
              <mxPoint x="1000" y="360" />
            </Array>
          </mxGeometry>
        </mxCell>
        <mxCell id="ggTP7xHLe0UpghVBcW5I-14" style="edgeStyle=orthogonalEdgeStyle;rounded=0;html=1;labelBackgroundColor=none;startArrow=none;startFill=0;startSize=5;endArrow=classicThin;endFill=1;endSize=5;jettySize=auto;orthogonalLoop=1;strokeWidth=1;fontFamily=Verdana;fontSize=12;entryX=0;entryY=1;entryDx=0;entryDy=0;exitX=0.5;exitY=1;exitDx=0;exitDy=0;" edge="1" parent="1c1d494c118603dd-2" source="ggTP7xHLe0UpghVBcW5I-6" target="ggTP7xHLe0UpghVBcW5I-5">
          <mxGeometry relative="1" as="geometry">
            <mxPoint x="840.37" y="489.97" as="sourcePoint" />
            <mxPoint x="820" y="350" as="targetPoint" />
            <Array as="points">
              <mxPoint x="850" y="520" />
              <mxPoint x="790" y="520" />
              <mxPoint x="790" y="350" />
              <mxPoint x="830" y="350" />
            </Array>
          </mxGeometry>
        </mxCell>
        <mxCell id="ggTP7xHLe0UpghVBcW5I-15" style="edgeStyle=orthogonalEdgeStyle;rounded=0;html=1;labelBackgroundColor=none;startArrow=none;startFill=0;startSize=5;endArrow=classicThin;endFill=1;endSize=5;jettySize=auto;orthogonalLoop=1;strokeWidth=1;fontFamily=Verdana;fontSize=12;entryX=1;entryY=1;entryDx=0;entryDy=0;" edge="1" parent="1c1d494c118603dd-2" target="ggTP7xHLe0UpghVBcW5I-5">
          <mxGeometry relative="1" as="geometry">
            <mxPoint x="1000" y="480" as="sourcePoint" />
            <mxPoint x="1050" y="633.47" as="targetPoint" />
            <Array as="points">
              <mxPoint x="1000" y="543" />
              <mxPoint x="930" y="543" />
              <mxPoint x="930" y="420" />
              <mxPoint x="870" y="420" />
            </Array>
          </mxGeometry>
        </mxCell>
        <mxCell id="ggTP7xHLe0UpghVBcW5I-16" value="Visualizar arquivos" style="rounded=1;whiteSpace=wrap;html=1;shadow=0;comic=0;labelBackgroundColor=none;strokeWidth=1;fontFamily=Verdana;fontSize=12;align=center;arcSize=50;" vertex="1" parent="1c1d494c118603dd-2">
          <mxGeometry x="710" y="250" width="100" height="30" as="geometry" />
        </mxCell>
        <mxCell id="ggTP7xHLe0UpghVBcW5I-17" style="edgeStyle=orthogonalEdgeStyle;rounded=0;html=1;labelBackgroundColor=none;startArrow=none;startFill=0;startSize=5;endArrow=classicThin;endFill=1;endSize=5;jettySize=auto;orthogonalLoop=1;strokeWidth=1;fontFamily=Verdana;fontSize=12;exitX=0.127;exitY=0.392;exitDx=0;exitDy=0;exitPerimeter=0;" edge="1" parent="1c1d494c118603dd-2" source="ggTP7xHLe0UpghVBcW5I-5">
          <mxGeometry relative="1" as="geometry">
            <mxPoint x="820" y="320" as="sourcePoint" />
            <mxPoint x="750" y="280" as="targetPoint" />
            <Array as="points">
              <mxPoint x="820" y="310" />
              <mxPoint x="710" y="310" />
              <mxPoint x="710" y="300" />
              <mxPoint x="750" y="300" />
              <mxPoint x="750" y="280" />
            </Array>
          </mxGeometry>
        </mxCell>
        <mxCell id="ggTP7xHLe0UpghVBcW5I-18" style="edgeStyle=orthogonalEdgeStyle;rounded=0;html=1;labelBackgroundColor=none;startArrow=none;startFill=0;startSize=5;endArrow=classicThin;endFill=1;endSize=5;jettySize=auto;orthogonalLoop=1;strokeWidth=1;fontFamily=Verdana;fontSize=12;entryX=0.393;entryY=-0.007;entryDx=0;entryDy=0;entryPerimeter=0;exitX=0.5;exitY=0;exitDx=0;exitDy=0;" edge="1" parent="1c1d494c118603dd-2" source="ggTP7xHLe0UpghVBcW5I-16">
          <mxGeometry relative="1" as="geometry">
            <mxPoint x="760" y="220" as="sourcePoint" />
            <mxPoint x="830.03" y="319.7599999999999" as="targetPoint" />
            <Array as="points">
              <mxPoint x="760" y="220" />
              <mxPoint x="830" y="220" />
            </Array>
          </mxGeometry>
        </mxCell>
        <mxCell id="ggTP7xHLe0UpghVBcW5I-19" value="Realizar Bonificação" style="rounded=1;whiteSpace=wrap;html=1;shadow=0;comic=0;labelBackgroundColor=none;strokeWidth=1;fontFamily=Verdana;fontSize=12;align=center;arcSize=50;" vertex="1" parent="1c1d494c118603dd-2">
          <mxGeometry x="1070" y="310" width="100" height="30" as="geometry" />
        </mxCell>
        <mxCell id="ggTP7xHLe0UpghVBcW5I-20" style="edgeStyle=orthogonalEdgeStyle;rounded=0;html=1;labelBackgroundColor=none;startArrow=none;startFill=0;startSize=5;endArrow=classicThin;endFill=1;endSize=5;jettySize=auto;orthogonalLoop=1;strokeWidth=1;fontFamily=Verdana;fontSize=12;exitX=1;exitY=0.5;exitDx=0;exitDy=0;entryX=-0.001;entryY=0.646;entryDx=0;entryDy=0;entryPerimeter=0;" edge="1" parent="1c1d494c118603dd-2" source="ggTP7xHLe0UpghVBcW5I-5" target="ggTP7xHLe0UpghVBcW5I-19">
          <mxGeometry relative="1" as="geometry">
            <mxPoint x="990" y="260" as="sourcePoint" />
            <mxPoint x="1010" y="310" as="targetPoint" />
            <Array as="points">
              <mxPoint x="1010" y="330" />
            </Array>
          </mxGeometry>
        </mxCell>
        <mxCell id="ggTP7xHLe0UpghVBcW5I-21" style="edgeStyle=orthogonalEdgeStyle;rounded=0;html=1;labelBackgroundColor=none;startArrow=none;startFill=0;startSize=5;endArrow=classicThin;endFill=1;endSize=5;jettySize=auto;orthogonalLoop=1;strokeWidth=1;fontFamily=Verdana;fontSize=12;exitX=0.5;exitY=1;exitDx=0;exitDy=0;entryX=1;entryY=0.5;entryDx=0;entryDy=0;" edge="1" parent="1c1d494c118603dd-2" source="ggTP7xHLe0UpghVBcW5I-19" target="ggTP7xHLe0UpghVBcW5I-5">
          <mxGeometry relative="1" as="geometry">
            <mxPoint x="1010" y="371" as="sourcePoint" />
            <mxPoint x="910" y="350" as="targetPoint" />
            <Array as="points">
              <mxPoint x="1120" y="350" />
              <mxPoint x="890" y="350" />
            </Array>
          </mxGeometry>
        </mxCell>
        <mxCell id="ggTP7xHLe0UpghVBcW5I-22" value="Sair" style="rounded=1;whiteSpace=wrap;html=1;shadow=0;comic=0;labelBackgroundColor=none;strokeWidth=1;fontFamily=Verdana;fontSize=12;align=center;arcSize=50;" vertex="1" parent="1c1d494c118603dd-2">
          <mxGeometry x="1020" y="250" width="100" height="30" as="geometry" />
        </mxCell>
        <mxCell id="ggTP7xHLe0UpghVBcW5I-24" style="edgeStyle=orthogonalEdgeStyle;rounded=0;html=1;labelBackgroundColor=none;startArrow=none;startFill=0;startSize=5;endArrow=classicThin;endFill=1;endSize=5;jettySize=auto;orthogonalLoop=1;strokeWidth=1;fontFamily=Verdana;fontSize=12;entryX=0;entryY=0.5;entryDx=0;entryDy=0;exitX=1;exitY=0;exitDx=0;exitDy=0;" edge="1" parent="1c1d494c118603dd-2" source="ggTP7xHLe0UpghVBcW5I-5" target="ggTP7xHLe0UpghVBcW5I-22">
          <mxGeometry relative="1" as="geometry">
            <mxPoint x="900" y="270.24" as="sourcePoint" />
            <mxPoint x="970.03" y="339.9999999999999" as="targetPoint" />
            <Array as="points">
              <mxPoint x="900" y="320" />
              <mxPoint x="900" y="265" />
            </Array>
          </mxGeometry>
        </mxCell>
        <mxCell id="ggTP7xHLe0UpghVBcW5I-25" value="" style="ellipse;html=1;shape=endState;fillColor=#000000;strokeColor=light-dark(#000000,#FFFFFF);direction=south;" vertex="1" parent="1c1d494c118603dd-2">
          <mxGeometry x="1055" y="155" width="30" height="30" as="geometry" />
        </mxCell>
        <mxCell id="ggTP7xHLe0UpghVBcW5I-26" style="edgeStyle=orthogonalEdgeStyle;rounded=0;html=1;labelBackgroundColor=none;startArrow=none;startFill=0;startSize=5;endArrow=classicThin;endFill=1;endSize=5;jettySize=auto;orthogonalLoop=1;strokeWidth=1;fontFamily=Verdana;fontSize=12;exitX=0.5;exitY=0;exitDx=0;exitDy=0;entryX=1;entryY=0.5;entryDx=0;entryDy=0;" edge="1" parent="1c1d494c118603dd-2" target="ggTP7xHLe0UpghVBcW5I-25" source="ggTP7xHLe0UpghVBcW5I-22">
          <mxGeometry relative="1" as="geometry">
            <mxPoint x="1080" y="185" as="sourcePoint" />
            <mxPoint x="1050" y="185" as="targetPoint" />
          </mxGeometry>
        </mxCell>
        <mxCell id="ggTP7xHLe0UpghVBcW5I-27" style="edgeStyle=orthogonalEdgeStyle;rounded=0;html=1;labelBackgroundColor=none;startArrow=none;startFill=0;startSize=5;endArrow=classicThin;endFill=1;endSize=5;jettySize=auto;orthogonalLoop=1;strokeWidth=1;fontFamily=Verdana;fontSize=12;entryX=0.5;entryY=0;entryDx=0;entryDy=0;" edge="1" parent="1c1d494c118603dd-2" target="ggTP7xHLe0UpghVBcW5I-5">
          <mxGeometry relative="1" as="geometry">
            <mxPoint x="866" y="320" as="sourcePoint" />
            <mxPoint x="1010" y="237.5" as="targetPoint" />
            <Array as="points">
              <mxPoint x="866" y="238" />
              <mxPoint x="850" y="238" />
            </Array>
          </mxGeometry>
        </mxCell>
        <mxCell id="ggTP7xHLe0UpghVBcW5I-29" value="[Erro]" style="edgeLabel;html=1;align=center;verticalAlign=middle;resizable=0;points=[];" vertex="1" connectable="0" parent="ggTP7xHLe0UpghVBcW5I-27">
          <mxGeometry x="0.5495" y="-3" relative="1" as="geometry">
            <mxPoint as="offset" />
          </mxGeometry>
        </mxCell>
        <mxCell id="ggTP7xHLe0UpghVBcW5I-31" style="edgeStyle=none;rounded=0;html=1;dashed=1;labelBackgroundColor=none;startArrow=none;startFill=0;startSize=5;endArrow=oval;endFill=0;endSize=5;jettySize=auto;orthogonalLoop=1;strokeWidth=1;fontFamily=Verdana;fontSize=12;entryX=0.866;entryY=0.659;entryDx=0;entryDy=0;entryPerimeter=0;" edge="1" parent="1c1d494c118603dd-2" source="ggTP7xHLe0UpghVBcW5I-32" target="5HcYzfc1KLZGOu6a6nZM-62">
          <mxGeometry relative="1" as="geometry">
            <mxPoint x="542" y="330" as="targetPoint" />
          </mxGeometry>
        </mxCell>
        <mxCell id="ggTP7xHLe0UpghVBcW5I-32" value="Tipo de usuário a ser logado" style="shape=note;whiteSpace=wrap;html=1;rounded=0;shadow=0;comic=0;labelBackgroundColor=none;strokeWidth=1;fontFamily=Verdana;fontSize=12;align=center;size=20;" vertex="1" parent="1c1d494c118603dd-2">
          <mxGeometry x="450" y="359.96000000000004" width="90" height="55" as="geometry" />
        </mxCell>
      </root>
    </mxGraphModel>
  </diagram>
</mxfile>
